HIERARCHY
ROOT Hips
{
	OFFSET 0.000000 0.000000 0.000000
	CHANNELS 6 Xposition Yposition Zposition Xrotation Yrotation Zrotation
	JOINT LeftUpLeg_virtual
	{
		OFFSET 0.000000 0.000000 0.000000
		CHANNELS 3 Xrotation Yrotation Zrotation
		JOINT LeftUpLeg
		{
			OFFSET 15.427100 -6.655098 0.678600
			CHANNELS 3 Xrotation Yrotation Zrotation
			JOINT LeftLeg
			{
				OFFSET 4.081073 -39.591068 13.024000
				CHANNELS 3 Xrotation Yrotation Zrotation
				JOINT LeftFoot
				{
					OFFSET -4.081074 -37.707932 -15.979700
					CHANNELS 3 Xrotation Yrotation Zrotation
					JOINT LeftToeBase
					{
						OFFSET 5.346399 -15.068900 20.645000
						CHANNELS 3 Xrotation Yrotation Zrotation
						JOINT LeftToe_End
						{
							OFFSET 2.754700 0.931300 11.300900
							CHANNELS 3 Xrotation Yrotation Zrotation
							End Site
							{
								OFFSET 0 0 0
							}
						}
					}
				}
			}
		}
	}
	JOINT RightUpLeg_virtual
	{
		OFFSET 0.000000 0.000000 0.000000
		CHANNELS 3 Xrotation Yrotation Zrotation
		JOINT RightUpLeg
		{
			OFFSET -15.569500 -6.655098 0.678600
			CHANNELS 3 Xrotation Yrotation Zrotation
			JOINT RightLeg
			{
				OFFSET -4.081825 -39.591045 13.023800
				CHANNELS 3 Xrotation Yrotation Zrotation
				JOINT RightFoot
				{
					OFFSET 4.081824 -37.707954 -15.979600
					CHANNELS 3 Xrotation Yrotation Zrotation
					JOINT RightToeBase
					{
						OFFSET -5.346400 -15.068900 20.645000
						CHANNELS 3 Xrotation Yrotation Zrotation
						JOINT RightToe_End
						{
							OFFSET -2.754700 0.931300 11.300900
							CHANNELS 3 Xrotation Yrotation Zrotation
							End Site
							{
								OFFSET 0 0 0
							}
						}
					}
				}
			}
		}
	}
	JOINT Spine_virtual
	{
		OFFSET 0.000000 0.000000 0.000000
		CHANNELS 3 Xrotation Yrotation Zrotation
		JOINT Spine
		{
			OFFSET -0.279200 12.230698 -2.892100
			CHANNELS 3 Xrotation Yrotation Zrotation
			JOINT Spine1
			{
				OFFSET -0.232667 10.192268 -1.242267
				CHANNELS 3 Xrotation Yrotation Zrotation
				JOINT Spine1_split
				{
					OFFSET -0.232667 10.192268 -1.242267
					CHANNELS 3 Xrotation Yrotation Zrotation
					JOINT Spine2
					{
						OFFSET -0.232667 10.192268 -1.242267
						CHANNELS 3 Xrotation Yrotation Zrotation
						JOINT Neck_virtual
						{
							OFFSET 0.000000 0.000000 0.000000
							CHANNELS 3 Xrotation Yrotation Zrotation
							JOINT Neck
							{
								OFFSET -0.418800 17.814194 8.416900
								CHANNELS 3 Xrotation Yrotation Zrotation
								JOINT Head
								{
									OFFSET 0.000000 7.031097 3.806800
									CHANNELS 3 Xrotation Yrotation Zrotation
									JOINT HeadTop_End
									{
										OFFSET 0.000000 24.646606 12.978600
										CHANNELS 3 Xrotation Yrotation Zrotation
										End Site
										{
											OFFSET 0 0 0
										}
									}
								}
							}
						}
						JOINT LeftShoulder_virtual
						{
							OFFSET 0.000000 0.000000 0.000000
							CHANNELS 3 Xrotation Yrotation Zrotation
							JOINT LeftShoulder
							{
								OFFSET 8.476499 7.247704 -3.868750
								CHANNELS 3 Xrotation Yrotation Zrotation
								JOINT LeftShoulder_split
								{
									OFFSET 8.476499 7.247704 -3.868750
									CHANNELS 3 Xrotation Yrotation Zrotation
									JOINT LeftArm
									{
										OFFSET 9.308998 -2.777710 0.208600
										CHANNELS 3 Xrotation Yrotation Zrotation
										JOINT LeftForeArm
										{
											OFFSET 29.972298 0.000000 0.000000
											CHANNELS 3 Xrotation Yrotation Zrotation
											JOINT LeftHand
											{
												OFFSET 26.026505 0.000000 0.000000
												CHANNELS 3 Xrotation Yrotation Zrotation
												End Site
												{
													OFFSET 0 0 0
												}
											}
										}
									}
								}
							}
						}
						JOINT RightShoulder_virtual
						{
							OFFSET 0.000000 0.000000 0.000000
							CHANNELS 3 Xrotation Yrotation Zrotation
							JOINT RightShoulder
							{
								OFFSET -7.570500 7.247704 -3.868750
								CHANNELS 3 Xrotation Yrotation Zrotation
								JOINT RightShoulder_split
								{
									OFFSET -7.570500 7.247704 -3.868750
									CHANNELS 3 Xrotation Yrotation Zrotation
									JOINT RightArm
									{
										OFFSET -9.308998 -2.777710 0.208500
										CHANNELS 3 Xrotation Yrotation Zrotation
										JOINT RightForeArm
										{
											OFFSET -29.972300 0.000000 0.000000
											CHANNELS 3 Xrotation Yrotation Zrotation
											JOINT RightHand
											{
												OFFSET -26.026505 0.000000 0.000000
												CHANNELS 3 Xrotation Yrotation Zrotation
												End Site
												{
													OFFSET 0 0 0
												}
											}
										}
									}
								}
							}
						}
					}
				}
			}
		}
	}
}
MOTION
Frames: 6
Frame Time: 0.03333333
-0.955119 88.278687 -16.146606 0.000000 0.000000 0.000000 -0.794453 0.967204 4.170472 -18.815238 21.822803 4.499079 28.384799 6.550639 -0.703866 -8.530286 6.779990 -4.304115 3.889666 -1.058961 1.370530 0.000000 0.000000 0.000000 -0.528050 2.419215 3.984008 -5.361051 -11.847410 -14.743274 26.648446 7.088064 0.999717 -22.204549 -8.739371 18.417692 9.821571 4.015061 -11.021260 0.000000 0.000000 0.000000 -3.715386 12.895031 2.597235 1.751031 1.833313 -5.312952 3.075129 -0.791302 0.733655 0.144699 0.196574 -0.175124 0.000000 0.000000 0.000000 4.727263 2.241679 1.128522 0.393890 -1.940554 -0.136365 -9.368744 -26.918353 -8.726646 0.000000 0.000000 0.000000 3.326867 0.390673 0.735072 0.604171 -6.948974 -2.130556 -4.609721 -5.151384 -0.974689 -13.173793 10.283458 -65.642564 1.939588 -42.390189 -2.205884 0.000000 0.000000 0.000000 5.114709 0.653573 0.905576 4.666581 10.720807 -5.995075 1.402731 2.054102 1.257294 -2.814399 -5.388970 65.648281 -7.326391 42.958891 13.606873 0.000000 0.000000 0.000000 
-1.108449 88.267105 -16.287590 0.000000 0.000000 0.000000 -0.830626 1.225263 4.146395 -19.014495 21.347201 4.594245 28.630688 6.594068 -0.687703 -8.274376 6.956973 -4.397218 3.995592 -1.045811 1.317765 0.000000 0.000000 0.000000 -0.456091 2.362269 4.001089 -5.565857 -12.204703 -14.651323 26.378701 6.902229 0.966473 -22.083967 -8.817784 18.583075 9.613036 4.052286 -11.050823 0.000000 0.000000 0.000000 -3.584523 12.447152 2.790422 1.785483 1.725511 -5.355488 3.018969 -0.834685 0.725835 0.143991 0.188500 -0.166577 0.000000 0.000000 0.000000 4.898141 2.210557 1.125644 0.569266 -1.804627 -0.112746 -9.668796 -26.384080 -8.979798 0.000000 0.000000 0.000000 3.470301 0.352423 0.789655 0.578991 -7.113418 -2.243431 -3.987301 -6.000175 -0.503168 -13.696264 9.909559 -65.668280 1.960444 -42.744301 -2.168202 0.000000 0.000000 0.000000 5.153530 0.583117 0.915878 4.699315 10.907816 -5.959889 1.066900 1.522570 1.172840 -2.663899 -5.282070 65.596242 -7.412027 43.155471 13.707415 0.000000 0.000000 0.000000 
-1.344503 88.223427 -16.576714 0.000000 0.000000 0.000000 -0.790792 1.454777 3.985441 -19.462173 20.586400 4.825902 28.769809 6.782793 -0.604048 -8.021392 7.430259 -4.475021 4.182449 -1.013479 1.194989 0.000000 0.000000 0.000000 -0.243556 2.341117 3.853679 -5.982999 -12.425678 -14.486579 26.322419 6.871512 0.874611 -21.952643 -8.774499 18.925981 9.402253 4.149302 -11.058451 0.000000 0.000000 0.000000 -3.302946 11.834757 2.934378 1.926479 1.617493 -5.296931 3.035041 -0.912322 0.718538 0.169074 0.176254 -0.139549 0.000000 0.000000 0.000000 5.085668 2.127832 1.118848 0.777760 -1.445442 -0.151723 -9.807153 -24.615428 -8.837196 0.000000 0.000000 0.000000 3.676582 0.266128 0.821759 0.499722 -7.238430 -2.245039 -3.212263 -6.569351 -0.092267 -14.275879 9.166052 -65.731575 2.119625 -42.592090 -1.951155 0.000000 0.000000 0.000000 5.294110 0.469715 0.925923 4.704886 10.988740 -6.166250 0.708130 1.136340 1.029178 -2.422694 -5.283136 65.468128 -7.277722 43.003575 13.529230 0.000000 0.000000 0.000000 
-1.571278 88.119507 -17.001099 0.000000 0.000000 0.000000 -0.640193 1.555860 3.706909 -20.094423 19.680357 5.178690 28.902301 7.086335 -0.495228 -7.871927 8.148078 -4.526739 4.472204 -0.964913 0.963868 0.000000 0.000000 0.000000 0.050381 2.249963 3.554301 -6.594010 -12.450237 -14.273714 26.576160 6.897709 0.740760 -21.989494 -8.629351 19.139974 9.330219 4.275581 -11.001334 0.000000 0.000000 0.000000 -2.851007 11.070076 2.991940 2.198739 1.495564 -5.164322 3.116169 -1.038025 0.719257 0.196889 0.154938 -0.105732 0.000000 0.000000 0.000000 5.262859 1.972309 1.122289 0.988668 -0.873917 -0.154956 -9.798365 -21.550944 -8.290169 0.000000 0.000000 0.000000 3.916950 0.107056 0.851119 0.375897 -7.266257 -2.137998 -2.563941 -6.720380 0.265993 -14.856713 8.354928 -65.840817 2.389909 -42.085105 -1.551157 0.000000 0.000000 0.000000 5.540897 0.297538 0.933924 4.657506 11.014818 -6.605687 0.255002 0.916565 0.892837 -2.170627 -5.462115 65.366468 -6.951599 42.535512 13.092113 0.000000 0.000000 0.000000 
-1.787034 87.960815 -17.460243 0.000000 0.000000 0.000000 -0.316403 1.401540 3.379705 -20.880013 18.720550 5.693092 29.186290 7.457290 -0.415103 -7.859340 8.939935 -4.613920 4.770460 -0.914789 0.701740 0.000000 0.000000 0.000000 0.429272 2.015571 3.182293 -7.401206 -12.219899 -14.046505 27.079111 6.853299 0.590547 -22.105378 -8.419693 19.076720 9.286886 4.424605 -10.846182 0.000000 0.000000 0.000000 -2.303077 10.205752 2.944952 2.629995 1.342225 -4.998635 3.253297 -1.235205 0.742250 0.194702 0.125612 -0.086553 0.000000 0.000000 0.000000 5.418409 1.740825 1.147103 1.176573 -0.133575 0.034195 -9.794587 -17.238675 -7.374163 0.000000 0.000000 0.000000 4.179524 -0.142815 0.899081 0.240966 -7.236798 -1.990309 -2.034974 -6.604472 0.671934 -15.464515 7.857950 -65.906640 2.797616 -41.418001 -0.922457 0.000000 0.000000 0.000000 5.859171 0.060493 0.947221 4.512690 11.007056 -7.208585 -0.259954 0.874963 1.008185 -1.917512 -5.697191 65.265381 -6.479396 41.883232 12.430600 0.000000 0.000000 0.000000 
-1.992759 87.748474 -17.954979 0.000000 0.000000 0.000000 0.206007 0.984294 3.039043 -21.795152 17.776524 6.379002 29.756785 7.797425 -0.388550 -7.989273 9.594952 -4.754004 4.845492 -0.887673 0.594794 0.000000 0.000000 0.000000 0.906696 1.645321 2.808846 -8.521105 -11.688253 -13.864974 27.818894 6.782764 0.434313 -22.026045 -8.060804 18.889612 9.054478 4.584426 -10.624162 0.000000 0.000000 0.000000 -1.675492 9.211454 2.755746 3.252625 1.137324 -4.818307 3.420404 -1.513624 0.791553 0.161863 0.112124 -0.060536 0.000000 0.000000 0.000000 5.560201 1.437273 1.195209 1.328171 0.673511 0.522745 -9.982234 -11.904522 -6.163669 0.000000 0.000000 0.000000 4.468629 -0.473942 0.977190 0.142433 -7.236967 -1.863423 -1.720107 -6.424825 1.044768 -16.073650 7.949022 -65.794147 3.258187 -40.654877 -0.149534 0.000000 0.000000 0.000000 6.230680 -0.236911 0.980589 4.247546 11.012589 -7.834117 -0.877279 0.917488 1.299928 -1.507500 -5.879852 65.187824 -5.918003 41.219071 11.614037 0.000000 0.000000 0.000000 
